<?xml version="1.0" encoding="UTF-8"?>
<svg xmlns="http://www.w3.org/2000/svg" xmlns:xlink="http://www.w3.org/1999/xlink" width="1920" height="1080" viewBox="0 0 1920 1080">
<defs>
<g>
<g id="glyph-0-0">
<path d="M 1.511719 0 L 0.34375 -2.851562 L -0.0195312 -2.851562 L -0.0195312 -3.171875 L 1.441406 -3.171875 L 1.441406 -2.851562 L 0.933594 -2.851562 L 1.824219 -0.671875 L 2.71875 -2.851562 L 2.242188 -2.851562 L 2.242188 -3.171875 L 3.433594 -3.171875 L 3.433594 -2.851562 L 3.078125 -2.851562 L 1.914062 0 Z "/>
</g>
<g id="glyph-0-1">
<path d="M 0.59375 -4.265625 C 0.828125 -4.355469 1.050781 -4.421875 1.261719 -4.464844 C 1.476562 -4.511719 1.679688 -4.535156 1.863281 -4.535156 C 2.300781 -4.535156 2.640625 -4.441406 2.886719 -4.253906 C 3.128906 -4.066406 3.253906 -3.804688 3.253906 -3.46875 C 3.253906 -3.203125 3.167969 -2.976562 3 -2.796875 C 2.828125 -2.617188 2.589844 -2.496094 2.28125 -2.433594 C 2.644531 -2.378906 2.929688 -2.246094 3.132812 -2.035156 C 3.332031 -1.820312 3.433594 -1.542969 3.433594 -1.203125 C 3.433594 -0.785156 3.292969 -0.46875 3.015625 -0.246094 C 2.734375 -0.0234375 2.332031 0.0859375 1.808594 0.0859375 C 1.574219 0.0859375 1.347656 0.0625 1.125 0.0117188 C 0.90625 -0.0390625 0.683594 -0.113281 0.464844 -0.214844 L 0.464844 -1.082031 L 0.800781 -1.082031 C 0.820312 -0.792969 0.914062 -0.578125 1.089844 -0.429688 C 1.261719 -0.28125 1.503906 -0.207031 1.820312 -0.207031 C 2.125 -0.207031 2.363281 -0.296875 2.539062 -0.472656 C 2.714844 -0.648438 2.804688 -0.890625 2.804688 -1.195312 C 2.804688 -1.546875 2.714844 -1.8125 2.53125 -1.992188 C 2.351562 -2.171875 2.085938 -2.261719 1.738281 -2.261719 L 1.453125 -2.261719 L 1.453125 -2.566406 L 1.601562 -2.566406 C 1.949219 -2.566406 2.210938 -2.636719 2.386719 -2.78125 C 2.558594 -2.925781 2.648438 -3.144531 2.648438 -3.433594 C 2.648438 -3.695312 2.574219 -3.894531 2.433594 -4.03125 C 2.289062 -4.171875 2.082031 -4.238281 1.8125 -4.238281 C 1.546875 -4.238281 1.335938 -4.175781 1.1875 -4.050781 C 1.039062 -3.921875 0.953125 -3.734375 0.929688 -3.480469 L 0.59375 -3.480469 Z "/>
</g>
</g>
</defs>
<g fill="rgb(100%, 100%, 100%)" fill-opacity="1">
<use xlink:href="#glyph-0-0" x="30" y="25.671875"/>
<use xlink:href="#glyph-0-1" x="33" y="25.671875"/>
</g>
</svg>
