<?xml version="1.0" encoding="UTF-8"?>
<svg xmlns="http://www.w3.org/2000/svg" xmlns:xlink="http://www.w3.org/1999/xlink" width="1920" height="1080" viewBox="0 0 1920 1080">
<defs>
<g>
<g id="glyph-0-0">
<path d="M 3.910156 -3.125 C 3.84375 -3.496094 3.695312 -3.769531 3.476562 -3.949219 C 3.253906 -4.128906 2.949219 -4.214844 2.554688 -4.214844 C 2.039062 -4.214844 1.65625 -4.050781 1.40625 -3.722656 C 1.152344 -3.390625 1.027344 -2.890625 1.027344 -2.222656 C 1.027344 -1.570312 1.15625 -1.074219 1.417969 -0.738281 C 1.679688 -0.402344 2.0625 -0.234375 2.566406 -0.234375 C 2.789062 -0.234375 3.003906 -0.261719 3.210938 -0.316406 C 3.414062 -0.371094 3.609375 -0.457031 3.796875 -0.566406 L 3.796875 -1.714844 L 2.957031 -1.714844 L 2.957031 -2.035156 L 4.402344 -2.035156 L 4.402344 -0.371094 C 4.136719 -0.21875 3.851562 -0.105469 3.546875 -0.0273438 C 3.242188 0.046875 2.914062 0.0859375 2.566406 0.0859375 C 1.894531 0.0859375 1.355469 -0.125 0.949219 -0.542969 C 0.546875 -0.964844 0.34375 -1.523438 0.34375 -2.222656 C 0.34375 -2.925781 0.546875 -3.488281 0.953125 -3.90625 C 1.359375 -4.324219 1.902344 -4.535156 2.589844 -4.535156 C 2.84375 -4.535156 3.109375 -4.507812 3.378906 -4.445312 C 3.652344 -4.386719 3.941406 -4.300781 4.246094 -4.179688 L 4.246094 -3.125 Z "/>
</g>
<g id="glyph-0-1">
<path d="M 2.921875 -3.175781 L 2.921875 -2.382812 L 2.605469 -2.382812 C 2.59375 -2.542969 2.550781 -2.660156 2.472656 -2.734375 C 2.394531 -2.8125 2.28125 -2.851562 2.132812 -2.851562 C 1.863281 -2.851562 1.65625 -2.757812 1.511719 -2.570312 C 1.367188 -2.386719 1.296875 -2.117188 1.296875 -1.765625 L 1.296875 -0.316406 L 1.929688 -0.316406 L 1.929688 0 L 0.25 0 L 0.25 -0.316406 L 0.746094 -0.316406 L 0.746094 -2.859375 L 0.222656 -2.859375 L 0.222656 -3.171875 L 1.296875 -3.171875 L 1.296875 -2.609375 C 1.402344 -2.828125 1.539062 -2.992188 1.710938 -3.097656 C 1.878906 -3.203125 2.085938 -3.257812 2.328125 -3.257812 C 2.417969 -3.257812 2.511719 -3.25 2.609375 -3.238281 C 2.707031 -3.222656 2.8125 -3.203125 2.921875 -3.175781 Z "/>
</g>
<g id="glyph-0-2">
<path d="M 2.433594 -0.996094 L 2.433594 -1.667969 L 1.722656 -1.667969 C 1.453125 -1.667969 1.25 -1.609375 1.117188 -1.492188 C 0.984375 -1.375 0.914062 -1.195312 0.914062 -0.953125 C 0.914062 -0.730469 0.984375 -0.554688 1.117188 -0.425781 C 1.253906 -0.296875 1.4375 -0.234375 1.667969 -0.234375 C 1.898438 -0.234375 2.082031 -0.304688 2.222656 -0.445312 C 2.363281 -0.585938 2.433594 -0.769531 2.433594 -0.996094 M 2.980469 -1.980469 L 2.980469 -0.316406 L 3.46875 -0.316406 L 3.46875 0 L 2.433594 0 L 2.433594 -0.34375 C 2.308594 -0.195312 2.171875 -0.0859375 2.011719 -0.0195312 C 1.851562 0.0507812 1.664062 0.0859375 1.453125 0.0859375 C 1.101562 0.0859375 0.820312 -0.0078125 0.613281 -0.195312 C 0.40625 -0.382812 0.304688 -0.632812 0.304688 -0.953125 C 0.304688 -1.28125 0.421875 -1.535156 0.660156 -1.714844 C 0.894531 -1.898438 1.230469 -1.988281 1.660156 -1.988281 L 2.433594 -1.988281 L 2.433594 -2.203125 C 2.433594 -2.445312 2.359375 -2.632812 2.210938 -2.765625 C 2.066406 -2.898438 1.859375 -2.960938 1.597656 -2.960938 C 1.378906 -2.960938 1.203125 -2.914062 1.074219 -2.8125 C 0.945312 -2.714844 0.863281 -2.566406 0.832031 -2.371094 L 0.550781 -2.371094 L 0.550781 -3.011719 C 0.738281 -3.09375 0.925781 -3.15625 1.105469 -3.195312 C 1.285156 -3.238281 1.460938 -3.257812 1.632812 -3.257812 C 2.070312 -3.257812 2.40625 -3.148438 2.636719 -2.929688 C 2.867188 -2.714844 2.980469 -2.398438 2.980469 -1.980469 M 2.113281 -4.886719 L 2.707031 -4.886719 L 1.691406 -3.765625 L 1.34375 -3.765625 Z "/>
</g>
<g id="glyph-0-3">
<path d="M 3.195312 -3.835938 L 2.914062 -3.839844 C 2.910156 -4.011719 2.84375 -4.140625 2.722656 -4.222656 C 2.601562 -4.308594 2.417969 -4.351562 2.175781 -4.351562 C 1.871094 -4.351562 1.648438 -4.28125 1.507812 -4.136719 C 1.367188 -3.996094 1.296875 -3.773438 1.296875 -3.46875 L 1.296875 -3.171875 L 3.417969 -3.171875 L 3.417969 -0.316406 L 3.933594 -0.316406 L 3.933594 0 L 2.339844 0 L 2.339844 -0.316406 L 2.867188 -0.316406 L 2.867188 -2.851562 L 1.296875 -2.851562 L 1.296875 -0.316406 L 1.8125 -0.316406 L 1.8125 0 L 0.222656 0 L 0.222656 -0.316406 L 0.746094 -0.316406 L 0.746094 -2.851562 L 0.222656 -2.851562 L 0.222656 -3.171875 L 0.746094 -3.171875 L 0.746094 -3.457031 C 0.746094 -3.851562 0.863281 -4.144531 1.09375 -4.34375 C 1.328125 -4.542969 1.671875 -4.644531 2.128906 -4.644531 C 2.300781 -4.644531 2.476562 -4.628906 2.660156 -4.605469 C 2.839844 -4.578125 3.019531 -4.539062 3.195312 -4.484375 Z "/>
</g>
<g id="glyph-0-4">
<path d="M 3.140625 -0.953125 C 3.0625 -0.613281 2.914062 -0.355469 2.695312 -0.179688 C 2.472656 -0.00390625 2.1875 0.0859375 1.839844 0.0859375 C 1.375 0.0859375 1.003906 -0.0664062 0.726562 -0.371094 C 0.445312 -0.675781 0.304688 -1.082031 0.304688 -1.585938 C 0.304688 -2.09375 0.445312 -2.5 0.726562 -2.804688 C 1.003906 -3.105469 1.375 -3.257812 1.839844 -3.257812 C 2.039062 -3.257812 2.238281 -3.234375 2.4375 -3.1875 C 2.636719 -3.140625 2.835938 -3.070312 3.039062 -2.976562 L 3.039062 -2.164062 L 2.71875 -2.164062 C 2.675781 -2.441406 2.585938 -2.644531 2.445312 -2.773438 C 2.304688 -2.898438 2.105469 -2.960938 1.84375 -2.960938 C 1.546875 -2.960938 1.324219 -2.847656 1.171875 -2.617188 C 1.019531 -2.386719 0.945312 -2.042969 0.945312 -1.585938 C 0.945312 -1.128906 1.019531 -0.785156 1.171875 -0.554688 C 1.320312 -0.324219 1.546875 -0.207031 1.84375 -0.207031 C 2.082031 -0.207031 2.269531 -0.269531 2.410156 -0.394531 C 2.550781 -0.515625 2.648438 -0.703125 2.699219 -0.953125 Z "/>
</g>
<g id="glyph-0-5">
<path d="M 2.433594 -0.996094 L 2.433594 -1.667969 L 1.722656 -1.667969 C 1.453125 -1.667969 1.25 -1.609375 1.117188 -1.492188 C 0.984375 -1.375 0.914062 -1.195312 0.914062 -0.953125 C 0.914062 -0.730469 0.984375 -0.554688 1.117188 -0.425781 C 1.253906 -0.296875 1.4375 -0.234375 1.667969 -0.234375 C 1.898438 -0.234375 2.082031 -0.304688 2.222656 -0.445312 C 2.363281 -0.585938 2.433594 -0.769531 2.433594 -0.996094 M 2.980469 -1.980469 L 2.980469 -0.316406 L 3.46875 -0.316406 L 3.46875 0 L 2.433594 0 L 2.433594 -0.34375 C 2.308594 -0.195312 2.171875 -0.0859375 2.011719 -0.0195312 C 1.851562 0.0507812 1.664062 0.0859375 1.453125 0.0859375 C 1.101562 0.0859375 0.820312 -0.0078125 0.613281 -0.195312 C 0.40625 -0.382812 0.304688 -0.632812 0.304688 -0.953125 C 0.304688 -1.28125 0.421875 -1.535156 0.660156 -1.714844 C 0.894531 -1.898438 1.230469 -1.988281 1.660156 -1.988281 L 2.433594 -1.988281 L 2.433594 -2.203125 C 2.433594 -2.445312 2.359375 -2.632812 2.210938 -2.765625 C 2.066406 -2.898438 1.859375 -2.960938 1.597656 -2.960938 C 1.378906 -2.960938 1.203125 -2.914062 1.074219 -2.8125 C 0.945312 -2.714844 0.863281 -2.566406 0.832031 -2.371094 L 0.550781 -2.371094 L 0.550781 -3.011719 C 0.738281 -3.09375 0.925781 -3.15625 1.105469 -3.195312 C 1.285156 -3.238281 1.460938 -3.257812 1.632812 -3.257812 C 2.070312 -3.257812 2.40625 -3.148438 2.636719 -2.929688 C 2.867188 -2.714844 2.980469 -2.398438 2.980469 -1.980469 Z "/>
</g>
<g id="glyph-0-6">
</g>
<g id="glyph-0-7">
<path d="M 3.207031 -0.316406 L 3.734375 -0.316406 L 3.734375 0 L 2.660156 0 L 2.660156 -0.496094 C 2.550781 -0.296875 2.414062 -0.148438 2.25 -0.0546875 C 2.082031 0.0390625 1.875 0.0859375 1.632812 0.0859375 C 1.242188 0.0859375 0.921875 -0.0664062 0.675781 -0.378906 C 0.429688 -0.6875 0.304688 -1.089844 0.304688 -1.585938 C 0.304688 -2.085938 0.425781 -2.488281 0.675781 -2.796875 C 0.921875 -3.105469 1.242188 -3.257812 1.632812 -3.257812 C 1.875 -3.257812 2.082031 -3.210938 2.25 -3.117188 C 2.414062 -3.023438 2.550781 -2.875 2.660156 -2.675781 L 2.660156 -4.328125 L 2.140625 -4.328125 L 2.140625 -4.644531 L 3.207031 -4.644531 L 3.207031 -0.316406 M 2.660156 -1.429688 L 2.660156 -1.742188 C 2.660156 -2.121094 2.585938 -2.414062 2.4375 -2.613281 C 2.292969 -2.816406 2.082031 -2.914062 1.800781 -2.914062 C 1.519531 -2.914062 1.304688 -2.804688 1.164062 -2.582031 C 1.019531 -2.359375 0.945312 -2.027344 0.945312 -1.585938 C 0.945312 -1.148438 1.019531 -0.820312 1.164062 -0.59375 C 1.304688 -0.367188 1.519531 -0.257812 1.800781 -0.257812 C 2.082031 -0.257812 2.292969 -0.355469 2.4375 -0.554688 C 2.585938 -0.757812 2.660156 -1.046875 2.660156 -1.429688 Z "/>
</g>
<g id="glyph-0-8">
<path d="M 3.3125 -1.527344 L 0.945312 -1.527344 L 0.945312 -1.503906 C 0.945312 -1.074219 1.027344 -0.753906 1.1875 -0.535156 C 1.347656 -0.316406 1.585938 -0.207031 1.902344 -0.207031 C 2.140625 -0.207031 2.339844 -0.273438 2.492188 -0.398438 C 2.648438 -0.523438 2.753906 -0.710938 2.816406 -0.960938 L 3.257812 -0.960938 C 3.171875 -0.613281 3.007812 -0.351562 2.773438 -0.175781 C 2.539062 0 2.226562 0.0859375 1.84375 0.0859375 C 1.378906 0.0859375 1.007812 -0.0664062 0.726562 -0.371094 C 0.445312 -0.675781 0.304688 -1.082031 0.304688 -1.585938 C 0.304688 -2.089844 0.441406 -2.492188 0.71875 -2.796875 C 0.996094 -3.105469 1.359375 -3.257812 1.808594 -3.257812 C 2.289062 -3.257812 2.65625 -3.109375 2.914062 -2.816406 C 3.167969 -2.519531 3.300781 -2.089844 3.3125 -1.527344 M 2.664062 -1.84375 C 2.652344 -2.214844 2.574219 -2.492188 2.429688 -2.679688 C 2.285156 -2.867188 2.078125 -2.960938 1.808594 -2.960938 C 1.554688 -2.960938 1.355469 -2.867188 1.210938 -2.679688 C 1.066406 -2.492188 0.976562 -2.210938 0.945312 -1.84375 Z "/>
</g>
<g id="glyph-0-9">
<path d="M 1.511719 0 L 0.34375 -2.851562 L -0.0195312 -2.851562 L -0.0195312 -3.171875 L 1.441406 -3.171875 L 1.441406 -2.851562 L 0.933594 -2.851562 L 1.824219 -0.671875 L 2.71875 -2.851562 L 2.242188 -2.851562 L 2.242188 -3.171875 L 3.433594 -3.171875 L 3.433594 -2.851562 L 3.078125 -2.851562 L 1.914062 0 Z "/>
</g>
<g id="glyph-0-10">
<path d="M 0.59375 -4.15625 C 0.59375 -4.246094 0.628906 -4.328125 0.695312 -4.394531 C 0.761719 -4.460938 0.839844 -4.496094 0.933594 -4.496094 C 1.027344 -4.496094 1.105469 -4.460938 1.171875 -4.394531 C 1.238281 -4.328125 1.269531 -4.246094 1.269531 -4.15625 C 1.269531 -4.0625 1.238281 -3.984375 1.171875 -3.917969 C 1.105469 -3.851562 1.027344 -3.820312 0.933594 -3.820312 C 0.839844 -3.820312 0.761719 -3.851562 0.695312 -3.917969 C 0.628906 -3.984375 0.59375 -4.0625 0.59375 -4.15625 M 1.296875 -0.316406 L 1.8125 -0.316406 L 1.8125 0 L 0.222656 0 L 0.222656 -0.316406 L 0.746094 -0.316406 L 0.746094 -2.851562 L 0.222656 -2.851562 L 0.222656 -3.171875 L 1.296875 -3.171875 Z "/>
</g>
<g id="glyph-0-11">
<path d="M 0.34375 -0.175781 L 0.34375 -0.914062 L 0.660156 -0.914062 C 0.667969 -0.679688 0.742188 -0.503906 0.882812 -0.386719 C 1.023438 -0.265625 1.230469 -0.207031 1.503906 -0.207031 C 1.75 -0.207031 1.9375 -0.253906 2.066406 -0.347656 C 2.195312 -0.441406 2.261719 -0.574219 2.261719 -0.75 C 2.261719 -0.890625 2.214844 -1.003906 2.121094 -1.089844 C 2.027344 -1.175781 1.824219 -1.265625 1.523438 -1.363281 L 1.125 -1.496094 C 0.851562 -1.585938 0.65625 -1.695312 0.53125 -1.824219 C 0.410156 -1.957031 0.347656 -2.125 0.347656 -2.328125 C 0.347656 -2.617188 0.457031 -2.84375 0.667969 -3.011719 C 0.882812 -3.175781 1.175781 -3.257812 1.550781 -3.257812 C 1.71875 -3.257812 1.894531 -3.238281 2.078125 -3.191406 C 2.265625 -3.148438 2.457031 -3.085938 2.652344 -3 L 2.652344 -2.308594 L 2.335938 -2.308594 C 2.328125 -2.515625 2.257812 -2.675781 2.121094 -2.789062 C 1.984375 -2.90625 1.800781 -2.960938 1.570312 -2.960938 C 1.339844 -2.960938 1.164062 -2.921875 1.046875 -2.839844 C 0.925781 -2.757812 0.867188 -2.636719 0.867188 -2.472656 C 0.867188 -2.339844 0.914062 -2.234375 1.003906 -2.152344 C 1.09375 -2.070312 1.269531 -1.988281 1.539062 -1.90625 L 1.976562 -1.773438 C 2.277344 -1.679688 2.492188 -1.5625 2.625 -1.421875 C 2.757812 -1.28125 2.824219 -1.101562 2.824219 -0.878906 C 2.824219 -0.578125 2.707031 -0.34375 2.476562 -0.171875 C 2.25 0 1.929688 0.0859375 1.527344 0.0859375 C 1.324219 0.0859375 1.121094 0.0664062 0.929688 0.0195312 C 0.734375 -0.0234375 0.539062 -0.0898438 0.34375 -0.175781 Z "/>
</g>
<g id="glyph-0-12">
<path d="M 0.703125 -0.316406 L 0.703125 -4.328125 L 0.175781 -4.328125 L 0.175781 -4.644531 L 1.253906 -4.644531 L 1.253906 -2.675781 C 1.359375 -2.875 1.496094 -3.023438 1.664062 -3.117188 C 1.828125 -3.210938 2.035156 -3.257812 2.28125 -3.257812 C 2.667969 -3.257812 2.988281 -3.105469 3.234375 -2.796875 C 3.480469 -2.488281 3.605469 -2.085938 3.605469 -1.585938 C 3.605469 -1.089844 3.480469 -0.6875 3.234375 -0.378906 C 2.988281 -0.0664062 2.667969 0.0859375 2.28125 0.0859375 C 2.035156 0.0859375 1.828125 0.0390625 1.664062 -0.0546875 C 1.496094 -0.148438 1.359375 -0.296875 1.253906 -0.496094 L 1.253906 0 L 0.175781 0 L 0.175781 -0.316406 L 0.703125 -0.316406 M 1.253906 -1.429688 C 1.253906 -1.046875 1.328125 -0.757812 1.472656 -0.554688 C 1.617188 -0.355469 1.832031 -0.257812 2.109375 -0.257812 C 2.390625 -0.257812 2.601562 -0.367188 2.746094 -0.59375 C 2.890625 -0.820312 2.960938 -1.148438 2.960938 -1.585938 C 2.960938 -2.027344 2.890625 -2.359375 2.746094 -2.582031 C 2.601562 -2.804688 2.390625 -2.914062 2.109375 -2.914062 C 1.832031 -2.914062 1.617188 -2.816406 1.472656 -2.613281 C 1.328125 -2.414062 1.253906 -2.121094 1.253906 -1.742188 Z "/>
</g>
<g id="glyph-0-13">
<path d="M 1.253906 -0.316406 L 1.773438 -0.316406 L 1.773438 0 L 0.175781 0 L 0.175781 -0.316406 L 0.703125 -0.316406 L 0.703125 -4.328125 L 0.175781 -4.328125 L 0.175781 -4.644531 L 1.253906 -4.644531 Z "/>
</g>
</g>
</defs>
<g fill="rgb(100%, 100%, 100%)" fill-opacity="1">
<use xlink:href="#glyph-0-0" x="30" y="25.671875"/>
<use xlink:href="#glyph-0-1" x="35" y="25.671875"/>
<use xlink:href="#glyph-0-2" x="38" y="25.671875"/>
<use xlink:href="#glyph-0-3" x="42" y="25.671875"/>
<use xlink:href="#glyph-0-4" x="46" y="25.671875"/>
<use xlink:href="#glyph-0-5" x="49" y="25.671875"/>
<use xlink:href="#glyph-0-6" x="53" y="25.671875"/>
<use xlink:href="#glyph-0-7" x="55" y="25.671875"/>
<use xlink:href="#glyph-0-8" x="59" y="25.671875"/>
<use xlink:href="#glyph-0-6" x="63" y="25.671875"/>
<use xlink:href="#glyph-0-9" x="65" y="25.671875"/>
<use xlink:href="#glyph-0-10" x="68" y="25.671875"/>
<use xlink:href="#glyph-0-11" x="70" y="25.671875"/>
<use xlink:href="#glyph-0-10" x="73" y="25.671875"/>
<use xlink:href="#glyph-0-12" x="75" y="25.671875"/>
<use xlink:href="#glyph-0-10" x="79" y="25.671875"/>
<use xlink:href="#glyph-0-13" x="81" y="25.671875"/>
<use xlink:href="#glyph-0-10" x="83" y="25.671875"/>
<use xlink:href="#glyph-0-7" x="85" y="25.671875"/>
<use xlink:href="#glyph-0-5" x="89" y="25.671875"/>
<use xlink:href="#glyph-0-7" x="93" y="25.671875"/>
</g>
</svg>
